<?xml version="1.0" encoding="UTF-8" standalone="no"?>
<!-- Created with Inkscape (http://www.inkscape.org/) -->

<svg
   width="101.19366mm"
   height="44.988495mm"
   viewBox="0 0 101.19366 44.988495"
   version="1.1"
   id="svg5"
   inkscape:version="1.2 (dc2aedaf03, 2022-05-15)"
   sodipodi:docname="logo.svg"
   xmlns:inkscape="http://www.inkscape.org/namespaces/inkscape"
   xmlns:sodipodi="http://sodipodi.sourceforge.net/DTD/sodipodi-0.dtd"
   xmlns="http://www.w3.org/2000/svg"
   xmlns:svg="http://www.w3.org/2000/svg">
  <sodipodi:namedview
     id="namedview7"
     pagecolor="#505050"
     bordercolor="#ffffff"
     borderopacity="1"
     inkscape:showpageshadow="0"
     inkscape:pageopacity="0"
     inkscape:pagecheckerboard="1"
     inkscape:deskcolor="#505050"
     inkscape:document-units="mm"
     showgrid="false"
     inkscape:zoom="1.0544998"
     inkscape:cx="276.90854"
     inkscape:cy="-68.278819"
     inkscape:window-width="1920"
     inkscape:window-height="1017"
     inkscape:window-x="-8"
     inkscape:window-y="-8"
     inkscape:window-maximized="1"
     inkscape:current-layer="layer9"
     showguides="true" />
  <defs
     id="defs2">
    <rect
       x="103.26645"
       y="344.66852"
       width="519.01447"
       height="285.65912"
       id="rect300" />
  </defs>
  <g
     inkscape:groupmode="layer"
     id="layer3"
     inkscape:label="text"
     style="display:inline"
     transform="translate(-54.403169,-126.00574)">
    <g
       aria-label="SUS"
       id="text242"
       style="font-size:60.96px;font-family:'HoloLens MDL2 Assets';-inkscape-font-specification:'HoloLens MDL2 Assets';display:inline;fill:#bc2732;stroke-width:0.264583">
      <path
         d="m 81.103648,126.00576 v 5.36448 H 66.899969 q -1.46304,0 -2.80416,0.54864 -1.28016,0.54864 -2.25552,1.524 -0.97536,0.97536 -1.524,2.31648 -0.54864,1.28016 -0.54864,2.7432 0,1.46304 0.54864,2.7432 0.54864,1.28016 1.524,2.25552 0.97536,0.97536 2.25552,1.524 1.34112,0.54864 2.80416,0.54864 h 3.77952 q 2.56032,0 4.81584,0.97536 2.31648,0.97536 3.962399,2.68224 1.70688,1.70688 2.68224,4.02336 0.97536,2.25552 0.97536,4.81584 0,2.56032 -0.97536,4.8768 -0.97536,2.25552 -2.68224,3.9624 -1.645919,1.64592 -3.962399,2.62128 -2.25552,0.97536 -4.81584,0.97536 h -14.26464 v -5.30352 h 14.26464 q 1.46304,0 2.7432,-0.54864 1.34112,-0.54864 2.25552,-1.524 0.97536,-0.97536 1.524,-2.25552 0.6096,-1.34112 0.6096,-2.80416 0,-1.46304 -0.6096,-2.7432 -0.54864,-1.34112 -1.524,-2.31648 -0.9144,-0.97536 -2.25552,-1.524 -1.28016,-0.54864 -2.7432,-0.54864 h -3.77952 q -2.56032,0 -4.8768,-0.97536 -2.25552,-0.97536 -3.9624,-2.62128 -1.70688,-1.70688 -2.68224,-3.9624 -0.97536,-2.31648 -0.97536,-4.8768 0,-2.62128 0.97536,-4.8768 0.97536,-2.25552 2.68224,-3.9624 1.70688,-1.70688 3.9624,-2.68224 2.31648,-0.97536 4.8768,-0.97536 z"
         style="font-weight:bold;font-family:TimeBurner;-inkscape-font-specification:'TimeBurner Bold';fill:#000000"
         id="path1154" />
      <path
         d="m 121.0325,154.77888 q 0,3.3528 -1.28016,6.33984 -1.28016,2.92608 -3.47472,5.12064 -2.19456,2.19456 -5.1816,3.47472 -2.92608,1.28016 -6.27888,1.28016 -3.41376,0 -6.400803,-1.28016 -2.92608,-1.28016 -5.12064,-3.47472 -2.19456,-2.19456 -3.47472,-5.12064 -1.28016,-2.98704 -1.28016,-6.33984 v -28.77312 h 5.36448 v 28.77312 q 0,2.25552 0.85344,4.2672 0.85344,1.95072 2.31648,3.47472 1.524,1.46304 3.474723,2.31648 2.01168,0.85344 4.2672,0.85344 2.25552,0 4.20624,-0.85344 2.01168,-0.85344 3.47472,-2.31648 1.524,-1.524 2.37744,-3.47472 0.85344,-2.01168 0.85344,-4.2672 v -28.77312 h 5.30352 z"
         style="font-weight:bold;font-family:TimeBurner;-inkscape-font-specification:'TimeBurner Bold';fill:#000000"
         id="path1156" />
      <path
         d="m 153.58515,126.00576 v 5.36448 h -14.20367 q -1.46304,0 -2.80416,0.54864 -1.28016,0.54864 -2.25552,1.524 -0.97536,0.97536 -1.524,2.31648 -0.54864,1.28016 -0.54864,2.7432 0,1.46304 0.54864,2.7432 0.54864,1.28016 1.524,2.25552 0.97536,0.97536 2.25552,1.524 1.34112,0.54864 2.80416,0.54864 h 3.77951 q 2.56032,0 4.81584,0.97536 2.31648,0.97536 3.9624,2.68224 1.70688,1.70688 2.68224,4.02336 0.97536,2.25552 0.97536,4.81584 0,2.56032 -0.97536,4.8768 -0.97536,2.25552 -2.68224,3.9624 -1.64592,1.64592 -3.9624,2.62128 -2.25552,0.97536 -4.81584,0.97536 h -14.26463 v -5.30352 h 14.26463 q 1.46304,0 2.7432,-0.54864 1.34112,-0.54864 2.25552,-1.524 0.97536,-0.97536 1.524,-2.25552 0.6096,-1.34112 0.6096,-2.80416 0,-1.46304 -0.6096,-2.7432 -0.54864,-1.34112 -1.524,-2.31648 -0.9144,-0.97536 -2.25552,-1.524 -1.28016,-0.54864 -2.7432,-0.54864 h -3.77951 q -2.56032,0 -4.8768,-0.97536 -2.25552,-0.97536 -3.9624,-2.62128 -1.70688,-1.70688 -2.68224,-3.9624 -0.97536,-2.31648 -0.97536,-4.8768 0,-2.62128 0.97536,-4.8768 0.97536,-2.25552 2.68224,-3.9624 1.70688,-1.70688 3.9624,-2.68224 2.31648,-0.97536 4.8768,-0.97536 z"
         style="font-weight:bold;font-family:TimeBurner;-inkscape-font-specification:'TimeBurner Bold';fill:#000000"
         id="path1158" />
    </g>
  </g>
  <g
     id="layer4"
     inkscape:label="pills"
     transform="matrix(0.90099009,0,0,0.90099009,-44.007129,-110.67917)">
    <g
       inkscape:groupmode="layer"
       id="layer5"
       inkscape:label="left_top">
      <path
         id="path1171"
         style="fill:#3737c8;fill-opacity:1;stroke-width:0.168636"
         d="m 57.147088,136.712 a 5.7105838,5.7105838 0 0 0 5.71044,5.71043 h 7.32878 V 131.0012 h -7.32878 a 5.7105838,5.7105838 0 0 0 -5.71044,5.7108 z" />
    </g>
    <g
       inkscape:groupmode="layer"
       id="layer6"
       inkscape:label="left_bottom">
      <path
         id="path1168"
         style="fill:#e6e6e6;stroke-width:0.168636"
         d="m 72.406088,158.43013 a 5.7105838,5.7105838 0 0 0 -5.71044,-5.71043 h -7.32878 v 11.42123 h 7.32878 a 5.7105838,5.7105838 0 0 0 5.71044,-5.7108 z" />
    </g>
    <g
       inkscape:groupmode="layer"
       id="layer8"
       inkscape:label="middle">
      <path
         id="path454"
         style="fill:#37c837;fill-opacity:1;stroke-width:0.264583"
         d="m 96.04032,143.29973 v 11.49856 a 8.9596767,8.9596767 0 0 0 8.95945,8.96003 8.9596767,8.9596767 0 0 0 8.96002,-8.96003 v -11.49856 z" />
      <path
         id="circle460"
         style="fill:#e6e6e6;stroke-width:0.264583"
         d="m 104.99977,145.83869 a 8.9596767,8.9596767 0 0 0 -8.95945,8.95945 v 11.49856 h 17.91947 v -11.49856 a 8.9596767,8.9596767 0 0 0 -8.96002,-8.95945 z"
         transform="translate(9.2490842e-8,-22.996972)" />
    </g>
    <g
       inkscape:groupmode="layer"
       id="layer9"
       inkscape:label="right_top">
      <path
         id="path1165"
         style="fill:#d35f5f;stroke-width:0.168636"
         d="m 137.59351,136.712 a 5.7105838,5.7105838 0 0 0 5.71044,5.71043 h 7.32878 V 131.0012 h -7.32878 a 5.7105838,5.7105838 0 0 0 -5.71044,5.7108 z" />
    </g>
    <g
       inkscape:groupmode="layer"
       id="layer10"
       inkscape:label="right_bottom">
      <path
         id="path1147"
         style="fill:#e6e6e6;stroke-width:0.168636"
         d="m 152.8525,158.43013 a 5.7105838,5.7105838 0 0 0 -5.71044,-5.71043 h -7.32878 v 11.42123 h 7.32878 a 5.7105838,5.7105838 0 0 0 5.71044,-5.7108 z" />
    </g>
  </g>
</svg>
